<?xml version="1.0" encoding="UTF-8"?>
<svg width="400" height="400" viewBox="0 0 400 400" xmlns="http://www.w3.org/2000/svg">
  <path d="M160,80 C120,100 100,140 100,180 C100,220 120,260 140,280 C160,300 180,320 220,320 C260,320 280,300 300,280 C320,260 340,220 340,180 C340,140 320,100 280,80 C240,60 200,60 160,80 Z" fill="#3e7056" stroke="#333" stroke-width="2"/>
  
  <!-- Node points -->
  <circle cx="140" cy="120" r="8" fill="#ffcc00" stroke="#333" stroke-width="1" />
  <text x="140" y="110" text-anchor="middle" font-size="12" fill="#333">NS1</text>
  
  <circle cx="180" cy="280" r="8" fill="#ffcc00" stroke="#333" stroke-width="1" />
  <text x="180" y="300" text-anchor="middle" font-size="12" fill="#333">NS2</text>
  
  <circle cx="280" cy="140" r="8" fill="#ffcc00" stroke="#333" stroke-width="1" />
  <text x="280" y="130" text-anchor="middle" font-size="12" fill="#333">NS3</text>
  
  <circle cx="240" cy="240" r="8" fill="#ffcc00" stroke="#333" stroke-width="1" />
  <text x="240" y="260" text-anchor="middle" font-size="12" fill="#333">NS4</text>
  
  <!-- Connection lines -->
  <line x1="140" y1="120" x2="280" y2="140" stroke="#2c5584" stroke-width="2" stroke-dasharray="5,5" />
  <line x1="140" y1="120" x2="240" y2="240" stroke="#2c5584" stroke-width="2" />
  <line x1="180" y1="280" x2="240" y2="240" stroke="#a13d47" stroke-width="2" />
</svg>