<?xml version="1.0" encoding="UTF-8"?>
<svg width="400" height="400" viewBox="0 0 400 400" xmlns="http://www.w3.org/2000/svg">
  <path d="M160,80 C120,100 100,140 100,180 C100,220 120,260 140,280 C160,300 180,320 220,320 C260,320 280,300 300,280 C320,260 340,220 340,180 C340,140 320,100 280,80 C240,60 200,60 160,80 Z" fill="#3e7056" stroke="#333" stroke-width="2"/>
  
  <!-- Node points -->
  <circle cx="120" cy="180" r="8" fill="#ffcc00" stroke="#333" stroke-width="1" />
  <text x="120" y="170" text-anchor="middle" font-size="12" fill="#333">SN0</text>
  
  <circle cx="200" cy="100" r="8" fill="#ffcc00" stroke="#333" stroke-width="1" />
  <text x="200" y="90" text-anchor="middle" font-size="12" fill="#333">SN1</text>
  
  <circle cx="200" cy="300" r="8" fill="#ffcc00" stroke="#333" stroke-width="1" />
  <text x="200" y="320" text-anchor="middle" font-size="12" fill="#333">S1</text>
  
  <circle cx="300" cy="200" r="8" fill="#ffcc00" stroke="#333" stroke-width="1" />
  <text x="300" y="190" text-anchor="middle" font-size="12" fill="#333">SN3</text>
  
  <circle cx="260" cy="280" r="8" fill="#ffcc00" stroke="#333" stroke-width="1" />
  <text x="260" y="300" text-anchor="middle" font-size="12" fill="#333">SN4</text>
  
  <!-- Connection lines -->
  <line x1="200" y1="300" x2="200" y2="100" stroke="#61365b" stroke-width="2" />
  <line x1="200" y1="300" x2="300" y2="200" stroke="#a13d47" stroke-width="2" />
  <line x1="120" y1="180" x2="260" y2="280" stroke="#2c5584" stroke-width="2" stroke-dasharray="5,5" />
</svg>